PathFileType	4	(X/Y/Z)	..\data\2014007\dynamic\2014007_C5_04.trc
DataRate	CameraRate	NumFrames	NumMarkers	Units	OrigDataRate	OrigDataStartFrame	OrigNumFrames
100.000000	100.000000	4	52	mm	100.000000	19	157
Frame#	Time	L_IAS			L_IPS			R_IPS			R_IAS			L_FTC			L_FLE			L_FME			L_FAX			L_TTC			L_FAL			L_TAM			L_FCC			L_FM1			L_FM2			L_FM5			R_FTC			R_FLE			R_FME			R_FAX			R_TTC			R_FAL			R_TAM			R_FCC			R_FM1			R_FM2			R_FM5			CV7			TV10			SXS			SJN			L_SIA			L_SRS			L_SAA			L_SAE			L_HLE			L_HME			L_UOA			L_RSP			L_UHE			L_HM2			L_HM5			R_SIA			R_SRS			R_SAA			R_SAE			R_HLE			R_HME			R_UOA			R_RSP			R_UHE			R_HM2			R_HM5			
		X1	Y1	Z1	X2	Y2	Z2	X3	Y3	Z3	X4	Y4	Z4	X5	Y5	Z5	X6	Y6	Z6	X7	Y7	Z7	X8	Y8	Z8	X9	Y9	Z9	X10	Y10	Z10	X11	Y11	Z11	X12	Y12	Z12	X13	Y13	Z13	X14	Y14	Z14	X15	Y15	Z15	X16	Y16	Z16	X17	Y17	Z17	X18	Y18	Z18	X19	Y19	Z19	X20	Y20	Z20	X21	Y21	Z21	X22	Y22	Z22	X23	Y23	Z23	X24	Y24	Z24	X25	Y25	Z25	X26	Y26	Z26	X27	Y27	Z27	X28	Y28	Z28	X29	Y29	Z29	X30	Y30	Z30	X31	Y31	Z31	X32	Y32	Z32	X33	Y33	Z33	X34	Y34	Z34	X35	Y35	Z35	X36	Y36	Z36	X37	Y37	Z37	X38	Y38	Z38	X39	Y39	Z39	X40	Y40	Z40	X41	Y41	Z41	X42	Y42	Z42	X43	Y43	Z43	X44	Y44	Z44	X45	Y45	Z45	X46	Y46	Z46	X47	Y47	Z47	X48	Y48	Z48	X49	Y49	Z49	X50	Y50	Z50	X51	Y51	Z51	X52	Y52	Z52	

20	0.19	-943.4895629882815	903.4809570312502	166.0866241455077	-1149.268676757813	965.9315185546877	232.108413696289	-1150.4794921875	970.4912109375002	314.1737670898437	-964.7257080078127	915.5413818359377	417.1649780273438	-989.417419433594	879.1557617187502	95.17327117919911	-860.1738891601565	469.3587951660157	159.4250183105468	-871.0393676757815	456.5470275878907	280.7368774414062	-869.806823730469	402.7944946289064	157.2104339599609	-824.384216308594	399.7307434082032	221.0236053466796	-898.5152587890627	64.82513427734376	197.9085083007812	-883.5196533203127	82.75208282470705	279.2126464843749	-951.8233032226565	27.24158668518067	245.1154327392578	-764.3814697265626	26.54138755798341	277.7500915527343	-757.7592773437501	42.66167831420899	225.5112915039062	-792.2106933593752	25.04416656494141	176.8214416503906	-1038.734741210938	855.3244628906252	475.6907653808594	-1080.541381835938	446.4648437500001	445.3614501953125	-1063.065063476563	430.768524169922	313.1136474609374	-1134.896362304688	401.525604248047	444.9628295898438	-1088.6240234375	357.2911071777344	396.4749755859375	-1411.478881835938	191.2274169921875	398.5144653320312	-1373.614501953125	189.1605529785157	318.0003967285155	-1460.42578125	211.2292633056641	339.310577392578	-1366.251098632813	55.04852294921876	325.8221740722655	-1357.728149414063	59.98762893676759	374.3927612304686	-1389.853637695313	79.80701446533205	415.9161682128906	-1118.5419921875	1413.614013671875	250.405044555664	-1160.946411132813	1173.862548828125	273.2569580078124	-908.4680175781252	1169.812133789063	256.6274108886718	-992.553649902344	1335.871337890625	246.0614318847656	-1178.171997070313	1183.765014648438	180.7808227539061	-1161.256469726563	1326.1416015625	175.3371429443358	-1136.848510742188	1328.685424804688	102.8886642456054	-1088.914916992188	1333.218383789063	70.25633239746082	-1184.06298828125	1026.403686523438	37.94451522827135	-1190.369995117188	1019.361572265625	118.2674484252929	-1210.589477539063	1020.823791503906	70.56738281249987	-1166.965942382813	770.1649169921877	53.32234573364245	-1217.95263671875	789.2171020507815	-1.788617014885098	-1179.260620117188	675.0885620117189	46.01620101928697	-1262.546264648438	717.5280151367189	5.728273868560637	-1176.998046875	1204.15625	368.6993713378905	-1155.814453125	1334.406860351563	356.2765197753906	-1107.065307617188	1361.200561523438	419.0664367675781	-1061.73828125	1367.032104492188	436.4261474609375	-1052.11962890625	1056.958129882813	545.224365234375	-1099.2666015625	1038.281494140625	473.9614562988281	-1092.084594726563	1022.631225585938	527.3035278320312	-911.6071166992191	836.809997558594	494.2601623535156	-946.5313720703128	831.3581542968752	565.1143798828125	-871.7088012695316	765.4002075195314	492.3287963867188	-928.5803222656253	758.0012207031251	572.7556762695312	
21	0.2	-930.8198852539065	906.033386230469	164.7604980468749	-1136.570556640625	968.9011230468752	231.0877838134765	-1137.78857421875	972.869323730469	313.2789306640624	-952.3629150390627	917.9078369140627	415.6743469238281	-977.259216308594	881.9868774414065	93.96354675292959	-855.713317871094	468.8324584960939	158.3342742919921	-867.0977172851565	456.3216857910157	279.8187866210937	-866.5057373046877	402.3208007812501	156.1864166259765	-820.9249267578127	398.7708435058595	219.9687347412109	-898.3757934570315	64.77695465087892	197.6820983886718	-883.2747802734377	82.87357330322267	278.8542480468749	-951.671569824219	27.31505012512208	244.9470672607421	-764.5032958984376	26.86453247070313	277.8711547851562	-757.4882202148439	42.94163513183594	225.3705139160156	-792.1243286132815	25.32025909423829	176.3666534423828	-1025.609375	856.4234619140627	473.7626342773438	-1053.769409179688	446.640838623047	445.3969421386719	-1035.052124023438	430.5091857910157	312.8138427734374	-1107.524658203125	402.2102966308595	445.0748596191406	-1061.522827148438	357.8771057128907	396.6495361328125	-1388.2119140625	198.730941772461	397.6633911132812	-1349.61279296875	194.9247131347657	317.2893066406249	-1436.525390625	218.7497558593751	337.784454345703	-1344.358154296875	60.09298706054689	328.3917846679686	-1336.51220703125	65.14090728759767	376.9167480468749	-1368.66748046875	87.30902099609376	417.2475891113281	-1104.826049804688	1416.254760742188	248.827423095703	-1147.607299804688	1176.603393554688	271.6875915527343	-895.0543212890627	1172.281616210938	256.1711730957031	-978.9196777343752	1338.364135742188	245.0505981445312	-1164.163818359375	1186.477172851563	178.5424804687499	-1147.274047851563	1328.858764648438	173.3763732910155	-1122.35693359375	1331.341918945313	101.0229263305663	-1074.106689453125	1335.725341796875	68.77308654785145	-1165.734252929688	1027.526000976563	35.66400909423815	-1172.489868164063	1020.259033203125	116.0062866210936	-1192.0478515625	1021.005249023438	68.01593780517565	-1142.609985351563	771.4824218750002	50.91357803344714	-1194.104614257813	789.3338012695315	-4.190354347229151	-1151.423461914063	676.2493286132814	42.29593658447252	-1236.262084960938	716.1728515625001	2.680736780166475	-1163.97021484375	1207.055419921875	367.1076660156249	-1142.432250976563	1337.272827148438	354.7237548828124	-1093.804931640625	1364.0361328125	417.6109619140625	-1048.490112304688	1369.811157226563	435.1166687011719	-1040.835571289063	1059.580810546875	543.6248168945312	-1088.290161132813	1041.528442382813	472.4931030273438	-1081.360595703125	1026.015747070313	525.8688354492188	-905.5165405273441	836.0718383789065	493.7161254882812	-939.2459106445316	832.3934326171877	565.1284790039062	-868.1843872070316	763.2703857421876	491.539794921875	-923.6109008789066	758.4552612304689	573.1389770507812	
22	0.21	-918.4441528320315	908.5117797851565	163.4443054199218	-1124.160522460938	971.8911743164065	230.1129302978515	-1125.323852539063	975.3464355468752	312.3469543457031	-940.3751220703127	920.1938476562502	414.4490051269531	-965.627136230469	884.5413818359377	92.85735321044912	-851.7632446289065	468.3890991210939	157.3970489501952	-863.7681274414065	456.143280029297	279.0332946777343	-863.6942138671877	401.9281005859376	155.292984008789	-818.0393066406252	397.8624877929689	219.0783386230468	-898.3254394531252	64.66993713378908	197.4486694335937	-883.1541748046877	82.98078918457033	278.5012512207031	-951.617126464844	27.31649589538575	244.7786560058593	-764.6744995117189	27.23760795593262	277.9468688964843	-757.3504028320314	43.24104309082032	225.235855102539	-792.1177978515627	25.57295989990235	176.0374755859374	-1012.923217773438	857.7885742187502	471.9147644042969	-1026.866577148438	447.4454040527345	445.1904296875	-1007.18310546875	431.1939392089845	312.2368774414062	-1080.0009765625	403.4507141113282	444.8682861328125	-1034.067993164063	359.1702575683594	396.4942016601562	-1363.366333007813	205.0402984619141	396.6113281249999	-1324.1240234375	199.7695465087891	316.3640747070311	-1411.321044921875	224.4369812011719	336.0662536621093	-1319.415283203125	64.75711822509767	330.7936401367186	-1312.22216796875	70.20326232910158	379.3042602539061	-1344.688354492188	94.18933105468751	418.4939880371093	-1091.199829101563	1418.970092773438	247.3362884521484	-1134.558227539063	1179.457641601563	270.1442260742187	-881.9526977539065	1174.627563476563	255.8727569580078	-965.4154052734377	1340.857177734375	244.1440124511718	-1150.36328125	1189.313354492188	176.2856140136718	-1133.407958984375	1331.6875	171.4459533691405	-1107.935424804688	1334.10888671875	99.19438934326161	-1059.319458007813	1338.309204101563	67.36300659179676	-1147.171508789063	1028.66650390625	33.35404205322252	-1154.461669921875	1021.147583007813	113.7075805664061	-1173.37646484375	1021.157104492188	65.48283386230456	-1117.692260742188	772.9895629882815	48.52777481079089	-1169.625	789.5554809570315	-6.605230808258201	-1122.875610351563	677.7577514648439	38.66042709350573	-1209.206787109375	714.9534912109376	-0.3621188402177385	-1151.144775390625	1210.008422851563	365.4885864257812	-1129.197021484375	1340.1796875	353.2103881835937	-1080.689208984375	1366.873413085938	416.2078247070312	-1035.435180664063	1372.593383789063	433.89501953125	-1029.698852539063	1062.274780273438	542.1896362304688	-1077.491577148438	1044.789306640625	471.2581787109375	-1070.757934570313	1029.439331054688	524.6112670898438	-899.4827880859378	835.6758422851565	493.3215026855469	-931.8848266601566	833.7196044921877	565.2886962890625	-864.6691284179691	761.5809326171876	490.8900756835938	-918.5130004882816	759.2559204101564	573.6611328125	
23	0.22	-906.3229980468752	910.8992309570315	162.1299743652343	-1111.986450195313	974.867370605469	229.1651916503905	-1113.037475585938	977.908142089844	311.3601379394531	-928.6900024414065	922.3641357421877	413.4691162109375	-954.4478149414065	886.8070068359377	91.83490753173818	-848.2314453125002	468.0368041992189	156.6083831787109	-860.926208496094	456.0183105468751	278.3691101074218	-861.2723388671877	401.6287536621095	154.5300903320312	-815.6306152343752	397.0224609375001	218.3424530029296	-898.336364746094	64.51991271972658	197.2137298583984	-883.1192016601565	83.07323455810548	278.1537780761718	-951.647155761719	27.28021621704102	244.6105499267578	-764.8793945312501	27.59086990356446	277.9847106933593	-757.3159790039064	43.49309158325196	225.1133880615234	-792.1709594726565	25.75649452209473	175.8210144042968	-1000.606323242188	859.4418945312502	470.1650085449219	-999.986022949219	448.9204711914064	444.7398681640625	-979.568786621094	432.8448791503907	311.4067993164062	-1052.48828125	405.2593078613282	444.3413696289062	-1006.401062011719	361.1825866699219	396.0360412597656	-1337.067626953125	209.9315185546876	395.3802490234374	-1297.266723632813	203.5524597167969	315.2494506835936	-1384.9375	228.1501464843751	334.2025756835936	-1291.62548828125	68.82630920410158	332.853302001953	-1285.028930664063	74.90480041503908	381.3704833984374	-1318.053955078125	100.1264724731446	419.5246887207031	-1077.669555664063	1421.726806640625	245.935821533203	-1121.78076171875	1182.386474609375	268.6361389160156	-869.159606933594	1176.837768554688	255.7028350830078	-952.0458984375002	1343.328857421875	243.3280487060546	-1136.775634765625	1192.240356445313	174.0316314697264	-1119.669067382813	1334.591918945313	169.5620727539061	-1093.6083984375	1336.953002929688	97.41746520996084	-1044.592651367188	1340.942260742188	66.02873992919911	-1128.396850585938	1029.80859375	31.01327514648424	-1136.297607421875	1022.005554199219	111.3643112182616	-1154.62060546875	1021.286010742188	62.97502517700183	-1092.283447265625	774.694274902344	46.17712402343737	-1144.551147460938	789.9023437500002	-9.02880382537856	-1093.723510742188	679.6351318359376	35.14895248413073	-1181.440063476563	713.9158935546876	-3.392085552215722	-1138.499755859375	1212.98095703125	363.8521118164062	-1116.098876953125	1343.090454101563	351.7389221191406	-1067.707763671875	1369.684204101563	414.8544311523438	-1022.564758300781	1375.349243164063	432.7549743652344	-1018.742004394532	1065.009033203125	540.9116821289062	-1066.869506835938	1048.036254882813	470.2183227539062	-1060.294921875	1032.863891601563	523.5061645507812	-893.4366455078128	835.6170654296877	493.08740234375	-924.4638671875003	835.2940673828127	565.5781860351562	-861.0283203125003	760.3462524414064	490.4300842285156	-913.2558593750003	760.3687744140626	574.3101196289062	
